<svg width="220" height="100" viewBox="0 0 220 100" xmlns="http://www.w3.org/2000/svg">
  <!-- Globe/Network Graphic with overlapping bands -->
  <g transform="translate(15, 10)">
    <!-- Dark blue bands (#1E3A5F) -->
    <ellipse cx="30" cy="22" rx="28" ry="16" fill="none" stroke="#1E3A5F" stroke-width="2.5" opacity="0.9"/>
    <ellipse cx="30" cy="22" rx="16" ry="22" fill="none" stroke="#1E3A5F" stroke-width="2.5" opacity="0.9"/>
    <ellipse cx="30" cy="22" rx="22" ry="14" fill="none" stroke="#1E3A5F" stroke-width="2.2" opacity="0.85"/>
    
    <!-- Light gray/silver bands (#E5E7EB) -->
    <ellipse cx="30" cy="22" rx="24" ry="18" fill="none" stroke="#E5E7EB" stroke-width="2" opacity="0.7"/>
    <ellipse cx="30" cy="22" rx="18" ry="20" fill="none" stroke="#E5E7EB" stroke-width="1.8" opacity="0.6"/>
    <ellipse cx="30" cy="22" rx="20" ry="12" fill="none" stroke="#E5E7EB" stroke-width="2" opacity="0.65"/>
    
    <!-- Vibrant Orange arrow (#FF6B35) - sweeping from lower-left, curving up and right -->
    <path d="M 8 32 Q 12 28, 18 24 Q 25 20, 32 16 Q 38 13, 45 10" 
          stroke="#FF6B35" 
          stroke-width="3.5" 
          fill="none" 
          stroke-linecap="round" 
          stroke-linejoin="round"/>
    <polygon points="45,10 52,7 50,13" fill="#FF6B35"/>
  </g>
  
  <!-- Company Name: S2E in Vibrant Orange (#FF6B35) -->
  <text x="75" y="28" font-family="Arial, sans-serif" font-size="20" font-weight="bold" fill="#FF6B35">S2E</text>
  
  <!-- LOGISTICS in Medium Gray (#6B7280) -->
  <text x="75" y="48" font-family="Arial, sans-serif" font-size="15" font-weight="normal" fill="#6B7280">LOGISTICS</text>
  
  <!-- Underline extending to the right with arrow -->
  <line x1="75" y1="52" x2="155" y2="52" stroke="#6B7280" stroke-width="1.5"/>
  <polygon points="155,52 160,50 160,54" fill="#6B7280"/>
  
  <!-- Tagline: "Delivering Trust, Start to End" in Medium Gray (#6B7280) -->
  <text x="75" y="68" font-family="Arial, sans-serif" font-size="11" fill="#6B7280">Delivering Trust, Start to End</text>
</svg>
